<svg width="291" height="256" viewBox="0 0 291 256" fill="none" xmlns="http://www.w3.org/2000/svg">
<g filter="url(#filter0_d_1_6)">
<path d="M67.287 21.558V29.531H97.87V21.558H67.287ZM67.287 43.811V51.665H97.87V43.811H67.287ZM46.224 12.276C30.159 12.276 18.497 22.391 18.497 36.909C18.497 51.189 30.159 61.304 46.224 61.304C62.289 61.304 73.951 51.189 73.951 36.909C73.951 22.391 62.289 12.276 46.224 12.276ZM46.224 20.487C56.815 20.487 64.55 27.27 64.55 36.909C64.55 46.429 56.815 53.212 46.224 53.212C35.633 53.212 28.017 46.429 28.017 36.909C28.017 27.27 35.633 20.487 46.224 20.487ZM95.49 8.706V63.803H105.367V8.706H95.49ZM36.109 69.277V77.131H95.609V87.841H36.347V111.403H45.986V95.219H105.367V69.277H36.109ZM36.347 107V114.854H109.294V107H36.347ZM183.779 36.552V44.763H208.055V36.552H183.779ZM204.961 8.706V72.847H214.838V8.706H204.961ZM179.495 76.06C157.242 76.06 143.557 83.557 143.557 96.171C143.557 108.904 157.242 116.163 179.495 116.163C201.629 116.163 215.314 108.904 215.314 96.171C215.314 83.557 201.629 76.06 179.495 76.06ZM179.495 83.795C195.679 83.795 205.556 88.317 205.556 96.171C205.556 103.906 195.679 108.428 179.495 108.428C163.311 108.428 153.434 103.906 153.434 96.171C153.434 88.317 163.311 83.795 179.495 83.795ZM153.791 19.535V28.222C153.791 43.692 142.724 58.091 126.778 63.922L131.895 71.776C149.745 65.112 161.883 48.095 161.883 28.222V19.535H153.791ZM155.695 19.535V28.222C155.695 46.31 167.238 62.494 184.731 68.801L189.729 60.947C174.14 55.473 163.668 42.145 163.668 28.222V19.535H155.695ZM129.753 16.56V24.652H187.23V16.56H129.753ZM16.5781 230V143.455H53.9347C60.358 143.455 65.9783 144.722 70.7958 147.258C75.6133 149.793 79.3602 153.357 82.0366 157.949C84.713 162.541 86.0511 167.908 86.0511 174.05C86.0511 180.248 84.6707 185.614 81.9098 190.15C79.1771 194.686 75.3316 198.179 70.3732 200.63C65.4431 203.081 59.6818 204.307 53.0895 204.307H30.777V186.051H48.3565C51.1174 186.051 53.4698 185.572 55.4137 184.614C57.3858 183.628 58.893 182.234 59.9354 180.431C61.0059 178.628 61.5412 176.501 61.5412 174.05C61.5412 171.571 61.0059 169.458 59.9354 167.711C58.893 165.936 57.3858 164.584 55.4137 163.654C53.4698 162.696 51.1174 162.217 48.3565 162.217H40.0739V230H16.5781ZM106.346 230H80.9907L109.557 143.455H141.674L170.241 230H144.886L125.954 167.288H125.278L106.346 230ZM101.613 195.855H149.28V213.435H101.613V195.855ZM166.194 143.455H192.395L209.298 178.614H209.974L226.878 143.455H253.078L221.3 202.786V230H197.973V202.786L166.194 143.455ZM262.945 231.352C259.677 231.352 256.874 230.211 254.536 227.929C252.226 225.619 251.085 222.816 251.113 219.52C251.085 216.308 252.226 213.561 254.536 211.279C256.874 208.998 259.677 207.857 262.945 207.857C266.044 207.857 268.777 208.998 271.143 211.279C273.538 213.561 274.75 216.308 274.778 219.52C274.75 221.717 274.172 223.718 273.045 225.521C271.946 227.295 270.51 228.718 268.735 229.789C266.96 230.831 265.03 231.352 262.945 231.352Z" fill="white"/>
</g>
<defs>
<filter id="filter0_d_1_6" x="0.578125" y="0.705994" width="290.2" height="254.646" filterUnits="userSpaceOnUse" color-interpolation-filters="sRGB">
<feFlood flood-opacity="0" result="BackgroundImageFix"/>
<feColorMatrix in="SourceAlpha" type="matrix" values="0 0 0 0 0 0 0 0 0 0 0 0 0 0 0 0 0 0 127 0" result="hardAlpha"/>
<feOffset dy="8"/>
<feGaussianBlur stdDeviation="8"/>
<feColorMatrix type="matrix" values="0 0 0 0 0 0 0 0 0 0 0 0 0 0 0 0 0 0 0.1 0"/>
<feBlend mode="normal" in2="BackgroundImageFix" result="effect1_dropShadow_1_6"/>
<feBlend mode="normal" in="SourceGraphic" in2="effect1_dropShadow_1_6" result="shape"/>
</filter>
</defs>
</svg>
